<svg viewBox="0 0 664884 730778.38" version="1.1" id="svg65" width="664884" height="730778.38"
   xmlns="http://www.w3.org/2000/svg"
   xmlns:svg="http://www.w3.org/2000/svg">
   <defs id="defs65" />
   <mask id="mask">
      <path d="M 1000,0 H 0 v 718.31 h 179.2 c 38.38,142.38 167.45,247.1 320.8,247.1 153.35,0 282.42,-104.72 320.8,-247.1 H 1000 Z" fill="#ffffff" id="path1" />
   </mask>
   <g mask="url(#mask)" id="g65" transform="translate(-167558.02,-224977.5)">
      <circle cx="500" cy="630.1601" r="332.44199" fill="#85c5e5" id="circle1" />
      <path d="m 610,758.72 c 90.76,0 72,114.24 72.87,241.28 H 610 Z" fill="#fbe8b3" id="path2" />
      <path d="M 632.74,831.87 610,870 l 11.38,130 h 31.76 c 0.77,-180.27 -20.4,-168.13 -20.4,-168.13 z" fill="#edd494" id="path3" />
      <path d="m 233.25,500 c 0,-147.32 119.43,-266.75 266.75,-266.75 147.32,0 266.75,119.43 266.75,266.75 A 266.22,266.22 0 0 1 668.1,707.12 q -8.21,6.68 -16.94,12.69 C 591,758 515,758 446.39,751.89 c -6.66,-1 -13.3,-2.26 -19.89,-3.71 -26.33,-5.8 -51.82,-14.75 -75.37,-27.8 Q 342.4,715 334.2,708.76 a 199.59,199.59 0 0 1 -15.8,-13.38 q -7.14,-6.63 -13.79,-13.78 A 265.86,265.86 0 0 1 233.25,500 Z" fill="#fbe8b3" id="path4" />
      <path d="m 269.61,634.48 c 0.7,1.2 1.39,2.4 2.11,3.58 0.43,0.72 0.88,1.42 1.33,2.14 0.66,1.07 1.32,2.14 2,3.19 0.48,0.76 1,1.5 1.46,2.24 0.66,1 1.32,2 2,3 0.51,0.76 1,1.52 1.56,2.28 0.66,1 1.32,1.92 2,2.88 0.54,0.77 1.1,1.53 1.65,2.3 0.55,0.77 1.34,1.85 2,2.77 0.66,0.92 1.15,1.53 1.73,2.29 0.58,0.76 1.37,1.8 2.07,2.7 0.7,0.9 1.19,1.51 1.79,2.26 0.6,0.75 1.41,1.76 2.12,2.63 0.71,0.87 1.23,1.49 1.85,2.23 0.62,0.74 1.44,1.72 2.17,2.57 0.73,0.85 1.27,1.47 1.91,2.2 l 2.22,2.5 c 0.65,0.73 1.31,1.44 2,2.16 0.86,0.94 1.73,1.87 2.6,2.79 l 1.21,1.28 c 1.29,1.34 2.59,2.68 3.91,4 l 0.26,0.27 c 1.29,1.28 2.6,2.55 3.91,3.81 l 1.58,1.5 c 0.95,0.89 1.9,1.78 2.86,2.66 l 1.16,1.06 c 1,0.94 2.09,1.86 3.14,2.78 q 4.9,4.27 10,8.19 8.19,6.24 16.93,11.62 c 23.55,13 49,22 75.37,27.8 6.59,1.45 13.23,2.7 19.89,3.71 42.1,3.75 87,5.18 129.28,-3.08 C 508.45,729 185.59,612.74 388.8,257.48 v 0 c -2.72,1.25 -5.4,2.54 -8.06,3.88 l -0.59,0.29 c -1.22,0.61 -2.44,1.24 -3.65,1.88 l -1,0.53 c -3.76,2 -7.48,4.07 -11.13,6.23 l -0.9,0.53 c -1.16,0.69 -2.31,1.39 -3.46,2.1 l -0.87,0.54 q -5.36,3.35 -10.55,6.93 l -1.08,0.75 c -1.09,0.76 -2.16,1.52 -3.23,2.29 l -0.66,0.47 q -3.27,2.39 -6.46,4.84 l -0.62,0.48 c -1,0.78 -2,1.58 -3,2.39 l -1.17,0.94 c -1,0.81 -2,1.62 -3,2.45 v 0 c -2.11,1.75 -4.19,3.55 -6.24,5.37 l -1.14,1 -2.69,2.45 -1.3,1.18 q -4.28,4 -8.37,8.17 l -1.38,1.41 c -0.79,0.82 -1.58,1.64 -2.36,2.47 -0.46,0.49 -0.92,1 -1.37,1.48 q -2.06,2.2 -4.06,4.46 c -0.45,0.51 -0.91,1 -1.36,1.54 -0.71,0.81 -1.41,1.63 -2.11,2.45 l -1.51,1.79 c -0.68,0.81 -1.36,1.62 -2,2.44 -0.54,0.66 -1.08,1.33 -1.61,2 -1.07,1.33 -2.12,2.66 -3.16,4 -0.54,0.7 -1.08,1.4 -1.61,2.11 -0.53,0.71 -1.2,1.59 -1.79,2.4 -0.59,0.81 -1.07,1.45 -1.59,2.18 -0.52,0.73 -1.13,1.55 -1.68,2.33 q -1.42,2 -2.8,4.05 c -0.5,0.73 -1,1.48 -1.49,2.22 -0.49,0.74 -1.1,1.66 -1.64,2.5 l -1.49,2.31 -1.68,2.71 c -0.43,0.69 -0.86,1.38 -1.28,2.07 -0.89,1.46 -1.75,2.93 -2.61,4.4 l -1.22,2.16 c -0.54,0.95 -1.08,1.91 -1.61,2.87 -0.4,0.73 -0.8,1.46 -1.19,2.19 -0.64,1.19 -1.27,2.39 -1.9,3.59 l -1.2,2.34 c -0.64,1.28 -1.28,2.55 -1.91,3.84 -0.33,0.69 -0.67,1.39 -1,2.09 -0.52,1.09 -1,2.19 -1.53,3.29 -0.31,0.66 -0.61,1.32 -0.91,2 q -1.11,2.47 -2.17,5 c -0.22,0.52 -0.43,1.05 -0.65,1.57 -0.53,1.27 -1.05,2.54 -1.56,3.82 -0.27,0.67 -0.53,1.34 -0.79,2 -0.5,1.26 -1,2.53 -1.45,3.8 -0.21,0.55 -0.42,1.1 -0.62,1.65 q -0.94,2.63 -1.85,5.26 l -0.56,1.7 q -0.66,2 -1.29,4 l -0.6,1.91 c -0.47,1.54 -0.93,3.08 -1.37,4.63 -0.1,0.33 -0.2,0.66 -0.29,1 q -0.78,2.76 -1.5,5.54 c -0.16,0.59 -0.3,1.19 -0.45,1.78 -0.35,1.39 -0.69,2.78 -1,4.18 l -0.42,1.75 c -0.43,1.9 -0.85,3.8 -1.24,5.71 l -0.15,0.77 q -0.51,2.55 -1,5.1 c -0.11,0.61 -0.21,1.21 -0.32,1.82 -0.26,1.49 -0.51,3 -0.74,4.5 -0.08,0.51 -0.17,1 -0.24,1.52 -0.3,1.95 -0.57,3.91 -0.83,5.88 l -0.15,1.3 c -0.2,1.59 -0.38,3.19 -0.55,4.79 -0.06,0.6 -0.13,1.2 -0.19,1.81 -0.16,1.68 -0.31,3.37 -0.45,5.06 0,0.35 -0.06,0.69 -0.08,1 q -0.22,3 -0.39,6.05 c 0,0.53 0,1.07 -0.07,1.6 q -0.1,2.36 -0.18,4.71 c 0,0.59 0,1.18 0,1.77 0,2.05 -0.08,4.11 -0.08,6.17 0,0 0,0.07 0,0.1 0,2.22 0,4.42 0.08,6.62 0,0.76 0.06,1.52 0.08,2.28 0.05,1.47 0.1,2.94 0.17,4.41 0,0.89 0.11,1.77 0.16,2.66 0.08,1.33 0.15,2.66 0.25,4 0.07,1 0.16,1.89 0.24,2.83 0.11,1.26 0.21,2.52 0.34,3.77 0.09,1 0.21,1.94 0.31,2.91 0.14,1.21 0.27,2.43 0.42,3.64 0.12,1 0.26,2 0.39,2.95 0.16,1.18 0.32,2.37 0.5,3.55 0.15,1 0.31,2 0.47,3 0.18,1.16 0.37,2.33 0.57,3.49 0.18,1 0.36,2 0.55,3 0.21,1.15 0.43,2.3 0.65,3.44 0.22,1.14 0.41,2 0.62,3 0.24,1.14 0.48,2.27 0.74,3.4 0.26,1.13 0.44,2 0.68,2.93 0.26,1.13 0.54,2.25 0.82,3.36 0.28,1.11 0.49,1.95 0.74,2.91 0.3,1.12 0.6,2.23 0.91,3.34 0.26,1 0.53,1.92 0.81,2.87 0.32,1.11 0.65,2.21 1,3.31 0.35,1.1 0.58,1.89 0.88,2.84 0.3,0.95 0.7,2.19 1.06,3.28 0.36,1.09 0.62,1.87 0.94,2.8 0.38,1.09 0.76,2.18 1.15,3.27 0.33,0.91 0.65,1.83 1,2.74 l 1.24,3.27 c 0.35,0.89 0.69,1.79 1,2.68 0.44,1.09 0.89,2.19 1.34,3.28 0.36,0.86 0.71,1.73 1.08,2.59 0.47,1.12 1,2.22 1.45,3.33 0.37,0.82 0.73,1.65 1.1,2.47 0.52,1.16 1.07,2.3 1.6,3.44 l 1.08,2.3 c 0.61,1.26 1.24,2.5 1.87,3.75 0.32,0.63 0.62,1.27 0.95,1.9 q 2.88,5.61 6,11.07 c 0.29,0.47 0.66,1.08 1.02,1.69 z" fill="#edd494" id="path5" />
      <path d="m 233.25,500 c 0,-147.32 119.43,-266.75 266.75,-266.75 147.32,0 266.75,119.43 266.75,266.75 A 266.22,266.22 0 0 1 668.1,707.12 q -8.21,6.68 -16.94,12.69 C 591,758 515,758 446.39,751.89 c -6.66,-1 -13.3,-2.26 -19.89,-3.71 -26.33,-5.8 -51.82,-14.75 -75.37,-27.8 Q 342.4,715 334.2,708.76 a 199.59,199.59 0 0 1 -15.8,-13.38 q -7.14,-6.63 -13.79,-13.78 A 265.86,265.86 0 0 1 233.25,500 Z" fill="none" stroke="#592d3d" stroke-miterlimit="10" stroke-width="12px" id="path6" />
      <path d="m 386.12,758.72 c -90.77,0 -72,114.24 -72.87,241.28 h 72.87 z" fill="#fbe8b3" id="path7" />
      <path d="M 367.23,831.87 390,870 378.61,1000 h -31.73 c -0.81,-180.27 20.35,-168.13 20.35,-168.13 z" fill="#edd494" id="path8" />
      <path d="M 619.47,1070 H 380.53 a 13.28,13.28 0 0 1 -13.27,-13.28 V 772 a 13.28,13.28 0 0 1 13.27,-13.28 h 233.23 c 13.09,0 19,7.66 19,19.88 v 278.08 A 13.28,13.28 0 0 1 619.47,1070 Z" fill="#fbe8b3" id="path9" />
      <path d="m 629.05,766.62 a 19.33,19.33 0 0 1 -2.51,-4 17.25,17.25 0 0 0 -8.28,-3.51 28.88,28.88 0 0 0 -4.5,-0.34 H 380.53 A 13.28,13.28 0 0 0 367.26,772 c 29,10.42 83.29,16.24 132.74,16.24 63.06,0 104.38,-9.35 129.05,-21.62 z" fill="#edd494" id="path10" />
      <path d="m 610,758.72 c 90.76,0 72,114.24 72.87,241.28 h -50.13" fill="none" stroke="#592d3d" stroke-linecap="square" stroke-miterlimit="10" stroke-width="12px" id="path11" />
      <path d="m 386.12,758.72 c -90.77,0 -72,114.24 -72.87,241.28 h 50.07" fill="none" stroke="#592d3d" stroke-linecap="square" stroke-miterlimit="10" stroke-width="12px" id="path12" />
      <path d="m 380.53,758.82 233.23,-0.1" fill="none" stroke="#592d3d" stroke-miterlimit="10" stroke-width="12px" id="path13" />
      <path d="M 380.53,1070 H 497.15 C 388,1070 396.24,838.82 367.26,838.82 v 217.86 a 13.28,13.28 0 0 0 13.27,13.32 z" fill="#edd494" id="path14" />
      <path d="m 361.26,860.85 c -0.19,-3.67 -0.11,-7.34 0.05,-11 0.16,-3.66 0.47,-7.35 0.86,-11 0.2,-1.84 0.4,-3.67 0.65,-5.51 0.25,-1.84 0.49,-3.67 0.85,-5.51 a 44.18,44.18 0 0 1 3.59,-11 44.18,44.18 0 0 1 3.59,11 c 0.36,1.84 0.62,3.67 0.85,5.51 0.23,1.84 0.45,3.67 0.65,5.51 0.38,3.67 0.68,7.34 0.85,11 0.17,3.66 0.25,7.34 0.06,11 z" fill="#592d3d" id="path15" />
      <path d="m 632.74,870 v 8 c 0.26,34 0.26,69 0,102.75 0,2.87 0,5.72 0,8.53 v 67.41 A 13.28,13.28 0 0 1 619.47,1070 H 380.53 a 13.28,13.28 0 0 1 -13.27,-13.28 v -58.2 c 0,-2.51 0,-5.07 0,-7.65 -0.25,-34.87 -0.25,-69.87 0,-105.3 v -24.72" fill="none" stroke="#592d3d" stroke-miterlimit="10" stroke-width="12px" id="path16" />
      <path d="m 626.74,870 c -0.19,-4.17 -0.1,-8.35 0.06,-12.53 0.16,-4.18 0.47,-8.35 0.85,-12.53 0.2,-2.09 0.41,-4.18 0.65,-6.27 0.24,-2.09 0.49,-4.17 0.85,-6.26 a 55.09,55.09 0 0 1 3.59,-12.53 55.09,55.09 0 0 1 3.59,12.53 c 0.36,2.09 0.62,4.18 0.85,6.26 0.23,2.08 0.45,4.18 0.65,6.27 0.38,4.18 0.69,8.35 0.85,12.53 0.16,4.18 0.25,8.36 0.06,12.53 z" fill="#592d3d" id="path17" />
      <path d="M 570.68,842.45 C 570.9,833 582.9,829 588.9,835 a 10.610703,10.610703 0 1 1 -15.16,14.85 10.4,10.4 0 0 1 -3.06,-7.4 z" fill="#592d3d" id="path18" />
      <path d="M 408.11,842.15 C 407.9,834 416.9,830 422.9,833 c 8,3 8,14 0,19 -4,2 -8,0 -11.75,-2.48 a 10.39,10.39 0 0 1 -3.04,-7.37 z" fill="#592d3d" id="path19" />
      <path d="m 500,831.77 a 27.13,27.13 0 0 1 1.5,5.84 42.47,42.47 0 0 1 0.49,5.84 l 0.3,11.69 c 0.09,3.89 0.21,7.79 0.25,11.69 l 0.17,11.67 c 0.23,15.57 0.22,31.16 0.28,46.74 0.06,15.58 0.18,31.16 0,46.74 -0.09,7.79 -0.3,15.58 -0.53,23.37 -0.1,3.89 -0.29,7.79 -0.67,11.68 a 92.5,92.5 0 0 1 -1.77,11.69 92.5,92.5 0 0 1 -1.77,-11.69 c -0.38,-3.89 -0.57,-7.79 -0.67,-11.68 -0.23,-7.79 -0.44,-15.58 -0.53,-23.37 -0.2,-15.58 0,-31.16 0,-46.74 0,-15.58 0,-31.15 0.18,-46.73 l 0.17,-11.7 0.33,-11.68 0.33,-11.68 a 44.11,44.11 0 0 1 0.5,-5.84 27.13,27.13 0 0 1 1.44,-5.84 z" fill="#edd494" id="path20" />
      <path d="m 425.22,883 a 18.51,18.51 0 0 1 4.67,-1.5 29.75,29.75 0 0 1 4.68,-0.5 l 9.35,-0.33 18.7,-0.41 c 12.46,-0.19 24.91,-0.24 37.38,-0.27 12.47,-0.03 24.93,-0.16 37.39,0 6.23,0.09 12.46,0.3 18.7,0.53 3.11,0.11 6.23,0.3 9.34,0.67 a 61.34,61.34 0 0 1 9.35,1.78 59.17,59.17 0 0 1 -9.35,1.77 c -3.11,0.38 -6.23,0.57 -9.34,0.67 -6.24,0.23 -12.47,0.43 -18.7,0.52 -12.46,0.19 -24.92,0 -37.39,0 -12.47,0 -24.93,0 -37.4,-0.15 -6.23,-0.06 -12.46,-0.26 -18.68,-0.5 l -9.35,-0.34 a 29.5,29.5 0 0 1 -4.67,-0.5 18.45,18.45 0 0 1 -4.68,-1.44 z" fill="#edd494" id="path21" />
      <path d="m 442.41,914.38 a 12.51,12.51 0 0 1 3.74,-1.11 18.35,18.35 0 0 1 3.62,-0.15 c 2.39,0.1 4.78,0.16 7.17,0.21 4.78,0.11 9.56,0.15 14.34,0.17 9.63,0 19.09,0.08 28.76,-0.21 9.67,-0.29 19.26,-0.43 28.88,-0.39 4.81,0 9.62,0.13 14.42,0.24 a 70.37,70.37 0 0 1 7.23,0.47 38.17,38.17 0 0 1 7.27,1.53 36.56,36.56 0 0 1 -7.16,2 61.08,61.08 0 0 1 -7.21,0.86 c -4.82,0.35 -9.64,0.65 -14.45,0.82 -9.64,0.36 -19.27,0.32 -28.88,0.45 -4.81,0 -9.61,0.22 -14.48,0.1 -4.87,-0.12 -9.69,-0.13 -14.52,-0.31 -4.83,-0.18 -9.68,-0.58 -14.5,-1.08 -2.42,-0.27 -4.82,-0.57 -7.23,-0.9 a 16.82,16.82 0 0 1 -3.57,-0.84 11.51,11.51 0 0 1 -3.43,-1.86 z" fill="#edd494" id="path22" />
      <path d="m 438.93,949.87 a 13.07,13.07 0 0 1 3.82,-1.5 19.13,19.13 0 0 1 3.82,-0.49 l 7.63,-0.32 c 5.09,-0.18 10.19,-0.33 15.28,-0.41 C 479.66,947 489.84,947 500,947 c 10.16,0 20.36,-0.17 30.54,0 5.09,0.09 10.18,0.3 15.27,0.53 a 72.73,72.73 0 0 1 7.63,0.66 41.2,41.2 0 0 1 7.66,1.81 41.25,41.25 0 0 1 -7.63,1.77 70.34,70.34 0 0 1 -7.64,0.67 c -5.09,0.23 -10.18,0.44 -15.27,0.53 -10.18,0.2 -20.37,0.06 -30.55,0 -10.18,-0.06 -20.36,-0.06 -30.54,-0.25 -5.09,-0.1 -10.19,-0.28 -15.28,-0.49 l -7.63,-0.37 a 19.33,19.33 0 0 1 -3.82,-0.5 12.85,12.85 0 0 1 -3.81,-1.49 z" fill="#edd494" id="path23" />
      <path d="m 677.8,906.35 c 0.21,-37.11 -1.21,-70.07 -7.73,-95.39 C 660,785.6 641.89,770.48 610,770.48 L 632.79,905 c 0,0 22.52,10.24 45.01,1.35 z" fill="#edd494" id="path24" />
      <path d="m 686.41,895.79 a 20.31,20.31 0 0 1 -3.7,2.43" fill="none" stroke="#592d3d" stroke-linecap="square" stroke-miterlimit="10" stroke-width="12px" id="path25" />
      <path d="m 326.11,809.88 c -6.83,25.57 -8,59.13 -7.74,97 19.9,8.54 50.42,-2.15 50.42,-2.15 l 17.33,-132.24 c -30.87,-0.03 -49.27,13.87 -60.01,37.39 z" fill="#edd494" id="path26" />
      <path d="m 613.76,758.72 h -54.21 v 0.1 a 62.78,62.78 0 0 1 -1.44,13.39 60.92,60.92 0 0 1 -1.74,6.33 50.88,50.88 0 0 1 -10,16.83 48.2,48.2 0 0 1 -4.5,4.43 C 516.7,818 476.7,819 452.39,799.22 a 51.79,51.79 0 0 1 -7.11,-7.6 50.84,50.84 0 0 1 -9.1,-19.41 62.41,62.41 0 0 1 -1.07,-6.59 61,61 0 0 1 -0.37,-6.8 v -0.1 H 380.53 A 13.28,13.28 0 0 0 367.26,772 v 284.68 a 13.28,13.28 0 0 0 13.27,13.32 h 238.94 a 13.28,13.28 0 0 0 13.27,-13.28 V 778.6 c 0,-12.22 -5.89,-19.88 -18.98,-19.88 z" fill="#633749" id="path27" />
      <path d="m 610,758.72 c 63.54,0 73.4,56 73.9,133.17 -18.6,11.62 -48.91,1.31 -48.91,1.31 z" fill="#633749" id="path28" />
      <path d="M 632.74,831.87 610,870 l 11.38,130 h 11.61 V 894.35 l 17.28,2.89 c -5.67,-72.17 -17.53,-65.37 -17.53,-65.37 z" fill="#5e3244" id="path29" />
      <path d="m 386.12,758.72 c -61.78,0 -75.83,53.8 -76.85,127.66 19,19.86 58,4.58 58,4.58 z" fill="#633749" id="path30" />
      <path d="M 367.23,831.87 V 891 l -17.31,4.31 c 5.67,-70.12 17.31,-63.44 17.31,-63.44 z" fill="#5e3244" id="path31" />
      <path d="m 610,758.72 c 67.41,0 78.45,56.29 78.9,133.78 -26.2,12.43 -53.91,0.7 -53.91,0.7" fill="none" stroke="#592d3d" stroke-linecap="square" stroke-miterlimit="10" stroke-width="12px" id="path32" />
      <path d="m 386.12,758.72 c -66.79,0 -80.08,54.7 -80.76,130.72 20.64,14.78 61.86,1.56 61.86,1.56" fill="none" stroke="#592d3d" stroke-linecap="square" stroke-miterlimit="10" stroke-width="12px" id="path33" />
      <path d="M 380.53,1070 H 497.15 C 388,1070 396.24,838.82 367.26,838.82 v 217.86 a 13.28,13.28 0 0 0 13.27,13.32 z" fill="#5e3244" id="path34" />
      <path d="m 361.26,860.85 c -0.19,-3.67 -0.11,-7.34 0.05,-11 0.16,-3.66 0.47,-7.35 0.86,-11 0.2,-1.84 0.4,-3.67 0.65,-5.51 0.25,-1.84 0.49,-3.67 0.85,-5.51 a 44.18,44.18 0 0 1 3.59,-11 43.74,43.74 0 0 1 3.58,11 c 0.37,1.84 0.63,3.67 0.86,5.51 0.23,1.84 0.45,3.67 0.65,5.51 0.38,3.67 0.68,7.34 0.85,11 0.17,3.66 0.25,7.34 0.06,11 z" fill="#592d3d" id="path35" />
      <path d="m 632.74,870 v 8 c 0.26,34 0.26,69 0,102.75 0,2.87 0,5.72 0,8.53 v 67.41 A 13.28,13.28 0 0 1 619.47,1070 H 380.53 a 13.28,13.28 0 0 1 -13.27,-13.28 v -58.2 c 0,-2.51 0,-5.07 0,-7.65 -0.25,-34.87 -0.25,-69.87 0,-105.3 v -24.72" fill="none" stroke="#592d3d" stroke-miterlimit="10" stroke-width="12px" id="path36" />
      <path d="m 626.74,870 c -0.19,-4.17 -0.1,-8.35 0.06,-12.53 0.16,-4.18 0.47,-8.35 0.85,-12.53 0.2,-2.09 0.41,-4.18 0.65,-6.27 0.24,-2.09 0.49,-4.17 0.86,-6.26 a 54.55,54.55 0 0 1 3.58,-12.53 55.09,55.09 0 0 1 3.59,12.53 c 0.36,2.09 0.62,4.18 0.85,6.26 0.23,2.08 0.45,4.18 0.65,6.27 0.38,4.18 0.69,8.35 0.85,12.53 0.16,4.18 0.25,8.36 0.06,12.53 z" fill="#592d3d" id="path37" />
      <path d="m 380.53,758.82 233.23,-0.1" fill="none" stroke="#592d3d" stroke-miterlimit="10" stroke-width="12px" id="path38" />
      <path d="m 559.55,758.82 a 62.78,62.78 0 0 1 -1.44,13.39 60.92,60.92 0 0 1 -1.74,6.33 50.88,50.88 0 0 1 -10,16.83 48.2,48.2 0 0 1 -4.5,4.43 C 516.7,818 476.7,819 452.39,799.22 a 51.79,51.79 0 0 1 -7.11,-7.6 50.84,50.84 0 0 1 -9.1,-19.41 62.41,62.41 0 0 1 -1.07,-6.59 61,61 0 0 1 -0.37,-6.8" fill="none" stroke="#592d3d" stroke-miterlimit="10" stroke-width="12px" id="path39" />
      <path d="m 503.4,828.39 a 66.61,66.61 0 0 1 -18.39,1.1 69.79,69.79 0 0 1 -18.2,-3.76 61.46,61.46 0 0 1 -16.5,-8.64 l -1.86,-1.41 c -0.61,-0.48 -1.2,-1 -1.79,-1.52 a 32.24,32.24 0 0 1 -3.33,-3.28 43.83,43.83 0 0 1 -5.38,-7.51 87.37,87.37 0 0 0 6.74,6.09 c 0.58,0.48 1.17,0.95 1.75,1.4 0.58,0.45 1.23,0.82 1.84,1.24 0.61,0.42 1.22,0.84 1.85,1.23 l 1.91,1.16 a 88.05,88.05 0 0 0 16.1,7.46 106.26,106.26 0 0 0 17.25,4.45 173.7,173.7 0 0 0 18.01,1.99 z" fill="#592d3d" id="path40" />
      <path d="m 307.83,892.5 a 24.54,24.54 0 0 0 3.68,2.77" fill="none" stroke="#592d3d" stroke-linecap="square" stroke-miterlimit="10" stroke-width="12px" id="path41" />
      <path d="m 674.7,882.69 a 19.88,19.88 0 0 1 -6.76,2.52 34.83,34.83 0 0 1 -7.2,0.65 40.16,40.16 0 0 1 -7.18,-0.79 c -1.18,-0.21 -2.33,-0.56 -3.49,-0.87 -1.16,-0.31 -2.27,-0.77 -3.37,-1.24 1.21,0 2.38,0.18 3.56,0.28 l 3.52,0.29 c 1.17,0 2.33,0.2 3.5,0.21 1.17,0.01 2.32,0.11 3.48,0.12 q 3.5,0.06 7,-0.19 a 49.31,49.31 0 0 0 6.94,-0.98 z" fill="#592d3d" id="path42" />
      <path d="M 517.8,866.62 503.4,891.56 489,866.62 h -48 l 62.36,108 62.36,-108 z" fill="none" stroke="#ffffff" stroke-width="16px" id="path43" />
      <path d="M 517.8,866.62 503.4,891.56 489,866.62 h -48 l 62.36,108 62.36,-108 z" fill="#44b783" id="path44" />
      <path d="M 517.8,866.62 503.4,891.56 489,866.62 h -23 l 37.42,64.81 37.42,-64.81 z" fill="#364a5e" id="path45" />
      <circle cx="341.06" cy="569.08002" r="20.959999" fill="#592d3d" id="circle45" />
      <path d="m 340.93,586 c 1.79,-0.1 3.79,-0.26 5.7,-0.46 1.91,-0.2 3.86,-0.44 5.79,-0.74 1.93,-0.3 3.87,-0.65 5.81,-1 1.94,-0.35 3.92,-0.68 6,-0.83 a 24.74,24.74 0 0 1 -5.31,3.12 48.86,48.86 0 0 1 -5.78,2 50.61,50.61 0 0 1 -6,1.36 36.13,36.13 0 0 1 -6.24,0.54 z" fill="#592d3d" id="path46" />
      <circle cx="661.77002" cy="569.08002" r="20.959999" fill="#592d3d" id="circle46" />
      <path d="m 661.77,586 c 1.8,-0.1 3.79,-0.26 5.7,-0.46 1.91,-0.2 3.87,-0.44 5.8,-0.74 1.93,-0.3 3.87,-0.65 5.81,-1 1.94,-0.35 3.92,-0.68 6,-0.83 a 25,25 0 0 1 -5.31,3.12 48.86,48.86 0 0 1 -5.78,2 51.06,51.06 0 0 1 -6,1.36 36.22,36.22 0 0 1 -6.24,0.54 z" fill="#592d3d" id="path47" />
      <path d="m 443.14,621.86 c 0,-18.9 113.72,-16.06 113.72,0 a 56.86,56.86 0 0 1 -113.72,0 z" fill="#592d3d" id="path48" />
      <path d="m 495,643 c -16.95,-1 -31.73,6.75 -36.65,18.22 a 56.86,56.86 0 0 0 65.14,12.53 55.39,55.39 0 0 0 6.51,-3.55 C 529.08,656.09 514.06,644.18 495,643 Z" fill="#f28195" id="path49" />
      <path d="m 443.14,621.86 c 0,-18.9 113.72,-16.06 113.72,0 a 56.86,56.86 0 0 1 -113.72,0 z" fill="none" stroke="#592d3d" stroke-miterlimit="10" stroke-width="6px" id="path50" />
      <path d="m 478.12,632.46 c 0.45,-0.11 0.63,-0.16 0.92,-0.21 l 0.75,-0.14 c 0.49,-0.09 1,-0.14 1.46,-0.18 a 21.54,21.54 0 0 1 2.89,-0.1 25,25 0 0 1 5.79,0.81 21.4,21.4 0 0 1 10.35,6.1 20.18,20.18 0 0 1 5.08,10.16 17.27,17.27 0 0 1 -1.36,10.35 c -2.07,-2.93 -3.66,-5.56 -5.32,-7.76 a 28.41,28.41 0 0 0 -2.45,-3 14.06,14.06 0 0 0 -2.7,-2.16 15.48,15.48 0 0 0 -6.11,-2.09 A 29.5,29.5 0 0 0 484,644 c -0.59,0 -1.18,0 -1.76,0.05 l -0.85,0.06 H 481 c -0.1,0 -0.3,0 -0.23,0 z" fill="#592d3d" id="path51" />
      <path d="m 500,233.25 c -135.7,0 -247.73,101.33 -264.56,232.45 A 307.11,307.11 0 0 0 305.6,366.79 919.45,919.45 0 0 0 500,387.94 899.57,899.57 0 0 0 694.4,366.79 307.11,307.11 0 0 0 764.56,465.7 C 747.73,334.58 635.7,233.25 500,233.25 Z" fill="#592d3d" id="path52" />
      <path d="m 305.6,366.79 q 15.94,3.45 32.07,6.35 c 10.61,-35.4 27.23,-73.88 51.13,-115.66 v 0 c -1.33,0.62 -2.66,1.24 -4,1.87 l -0.17,0.08 c -1.31,0.63 -2.62,1.27 -3.92,1.93 l -0.59,0.29 c -1.22,0.61 -2.44,1.24 -3.65,1.88 l -1,0.53 c -3.76,2 -7.48,4.07 -11.13,6.23 l -0.8,0.47 -0.14,0.09 q -1.73,1 -3.42,2.07 l -0.87,0.54 q -5.36,3.35 -10.55,6.93 l -1.08,0.75 c -1,0.71 -2,1.42 -3,2.14 l -0.71,0.52 -0.15,0.1 q -3.27,2.39 -6.46,4.84 l -0.62,0.48 c -1,0.78 -2,1.58 -3,2.39 l -1.17,0.94 -2.41,2 -0.78,0.65 c -2.05,1.71 -4.06,3.45 -6.06,5.22 l -1.14,1 -2.69,2.45 L 318,305 q -4.28,4 -8.37,8.17 l -1,1 c -0.22,0.22 -0.43,0.44 -0.64,0.67 -0.7,0.72 -1.39,1.44 -2.08,2.17 -0.46,0.49 -0.92,1 -1.37,1.48 q -2.06,2.2 -4.06,4.46 L 300,323.5 c -0.31,0.35 -0.63,0.7 -0.94,1.06 L 297,327 c -0.11,0.14 -0.22,0.27 -0.34,0.4 l -1.2,1.43 c -0.61,0.72 -1.21,1.45 -1.81,2.18 -0.39,0.47 -0.78,1 -1.17,1.44 l -0.66,0.82 q -1.59,2 -3.13,4 l -0.07,0.09 c -0.53,0.68 -1.05,1.36 -1.57,2.05 -0.4,0.52 -0.79,1.05 -1.17,1.57 l -1,1.33 -1.22,1.68 -1,1.35 -1.41,2 c -0.57,0.81 -1.13,1.62 -1.69,2.44 -0.56,0.82 -1.11,1.64 -1.65,2.46 l -0.25,0.36 -1.52,2.31 -1.74,2.72 c -0.52,0.83 -1,1.66 -1.55,2.49 v 0 c -0.57,0.92 -1.14,1.84 -1.7,2.77 -0.56,0.93 -1,1.68 -1.48,2.52 -0.48,0.84 -0.92,1.56 -1.36,2.34 l -0.57,1 -1.13,2 c -0.42,0.77 -0.85,1.53 -1.26,2.3 -0.14,0.25 -0.28,0.5 -0.41,0.75 -0.42,0.78 -0.84,1.57 -1.25,2.36 -0.41,0.79 -0.68,1.29 -1,1.94 l -0.84,1.63 -0.93,1.88 c -0.39,0.78 -0.78,1.55 -1.16,2.34 l -0.82,1.71 -0.3,0.65 c -0.44,0.92 -0.87,1.85 -1.3,2.78 l -0.72,1.59 c -0.41,0.91 -0.81,1.83 -1.21,2.75 l -1,2.34 c -0.45,1.07 -0.88,2.14 -1.32,3.21 -0.32,0.77 -0.63,1.53 -0.94,2.3 -0.11,0.26 -0.21,0.53 -0.31,0.8 -0.35,0.88 -0.69,1.77 -1,2.66 -0.31,0.89 -0.61,1.57 -0.9,2.36 l -0.16,0.43 c -0.38,1 -0.74,2 -1.1,3.06 -0.36,1.06 -0.64,1.79 -1,2.69 -0.37,1.08 -0.73,2.15 -1.08,3.23 -0.3,0.91 -0.6,1.82 -0.89,2.73 -0.35,1.09 -0.68,2.17 -1,3.26 -0.28,0.92 -0.55,1.84 -0.82,2.77 -0.32,1.09 -0.64,2.19 -0.94,3.29 -0.26,0.92 -0.51,1.85 -0.75,2.78 -0.3,1.11 -0.59,2.22 -0.87,3.34 -0.24,0.92 -0.46,1.86 -0.68,2.79 -0.27,1.12 -0.54,2.25 -0.8,3.37 -0.21,0.93 -0.41,1.87 -0.61,2.8 -0.24,1.14 -0.49,2.29 -0.73,3.44 -0.18,0.91 -0.35,1.82 -0.52,2.74 -0.17,0.92 -0.39,2 -0.57,3 l -0.18,1 -0.33,2 c -0.18,1.09 -0.37,2.19 -0.54,3.29 0,0.21 -0.07,0.42 -0.1,0.63 q -0.45,3 -0.84,6 a 307.11,307.11 0 0 0 70.17,-98.95 z" fill="#592d3d" id="path53" />
      <path d="m 500,233.25 c -135.7,0 -247.73,101.33 -264.56,232.45 A 307.11,307.11 0 0 0 305.6,366.79 919.45,919.45 0 0 0 500,387.94 899.57,899.57 0 0 0 694.4,366.79 307.11,307.11 0 0 0 764.56,465.7 C 747.73,334.58 635.7,233.25 500,233.25 Z" fill="none" stroke="#592d3d" stroke-miterlimit="10" stroke-width="12px" id="path54" />
      <path d="m 506.21,250.1 c -12.57,1.68 -24.94,3.38 -37.16,5.76 -12.22,2.38 -24.29,5.18 -36.18,8.64 -11.89,3.46 -23.62,7.48 -35.18,12.07 -11.56,4.59 -22.95,9.73 -34.46,15.05 a 170,170 0 0 1 31.87,-20.78 204.11,204.11 0 0 1 73.07,-21.19 172.76,172.76 0 0 1 38.04,0.45 z" fill="#ffffff" id="path55" />
      <path d="M 407.29,474.84 H 286.65 c -5.56,0 -11.12,-0.08 -16.68,0 h -0.24 c -5.23,0 -10.24,4.6 -10,10 a 10.17,10.17 0 0 0 10,10 h 120.64 c 5.55,0 11.12,0.08 16.68,0 h 0.24 c 5.23,0 10.24,-4.6 10,-10 a 10.18,10.18 0 0 0 -10,-10 z" fill="#592d3d" id="path56" />
      <path d="M 726.32,474.84 H 605.68 c -5.56,0 -11.12,-0.08 -16.68,0 h -0.24 c -5.23,0 -10.24,4.6 -10,10 a 10.17,10.17 0 0 0 10,10 H 709.4 c 5.56,0 11.12,0.08 16.68,0 h 0.24 c 5.23,0 10.24,-4.6 10,-10 a 10.18,10.18 0 0 0 -10,-10 z" fill="#592d3d" id="path57" />
      <circle cx="338.89999" cy="548.54999" r="93.309998" fill="#ffffff" opacity="0.2" id="circle57" />
      <path d="M 744.47,606.82 A 103.27,103.27 0 0 1 556.14,555.33 c -37,-14.6 -74.43,-14.47 -114.19,0.39 a 103.43,103.43 0 0 1 -103,96.13 c -32.48,0 -76,-36.5 -71,-28.39 14,20.69 47,36.45 72.54,36.45 54.55,0 97.87,-39.29 101.56,-92.92 39.76,-14.85 77.23,-15 114.19,-0.39 3.5,53.82 48.39,93.53 103.07,93.53 44.69,0 70.09,-34.13 85.16,-53.31 z" opacity="0.15" id="path58" />
      <path d="M 320,648.75 443.07,525.67 a 93.05,93.05 0 0 0 -10,-17.27 L 302.72,638.76 a 93.1,93.1 0 0 0 17.28,9.99 z" fill="#ffffff" opacity="0.4" id="path59" />
      <circle cx="338.89999" cy="548.54999" r="93.309998" fill="none" stroke="#592d3d" stroke-miterlimit="10" stroke-width="20px" id="circle59" />
      <circle cx="659.21002" cy="548.54999" r="93.309998" fill="none" stroke="#592d3d" stroke-miterlimit="10" stroke-width="20px" id="circle60" />
      <path d="m 432.77,548.55 c 45.2,-18.31 89.61,-19 133.14,0" fill="none" stroke="#592d3d" stroke-miterlimit="10" stroke-width="20px" id="path60" />
      <path d="m 314.7,492.5 c 2.06,6.5 -5.94,11.5 -11.94,12.5 -6,0 -10,-4 -12,-9 -1,-5 0,-10 4,-13 5,-2 12,-4 16.45,1.13 a 11.66,11.66 0 0 1 3.49,8.37 z" fill="#ffffff" id="path61" />
      <path d="m 325.37,488.67 c -0.61,4.33 -6.61,4.33 -7.61,0.33 0,-3 1,-4 3.85,-4.1 a 3.76,3.76 0 0 1 3.76,3.77 z" fill="#ffffff" id="path62" />
      <circle cx="659.21002" cy="548.54999" r="93.309998" fill="#ffffff" opacity="0.2" id="circle62" />
      <path d="M 645.19,640.81 751.47,534.52 A 94.74,94.74 0 0 0 749.06,523.3 L 634,638.4 a 94.31,94.31 0 0 0 11.19,2.41 z" fill="#ffffff" opacity="0.4" id="path63" />
      <circle cx="659.21002" cy="548.54999" r="93.309998" fill="none" stroke="#592d3d" stroke-miterlimit="10" stroke-width="20px" id="circle63" />
      <path d="m 635,492.5 c 2.06,6.5 -5.94,11.5 -11.94,12.5 -6,0 -10,-4 -12,-9 -1,-5 0,-10 4,-13 5,-2 12,-4 16.45,1.13 a 11.7,11.7 0 0 1 3.49,8.37 z" fill="#ffffff" id="path64" />
      <path d="m 645.69,488.67 c -0.61,4.33 -6.61,4.33 -7.61,0.33 0,-3 1,-4 3.84,-4.1 a 3.77,3.77 0 0 1 3.77,3.77 z" fill="#ffffff" id="path65" />
   </g>
</svg>
